<svg width="21" height="18" viewBox="0 0 21 18" fill="none" xmlns="http://www.w3.org/2000/svg">
<path d="M20.8 2.87492C20.02 3.21292 19.214 3.44692 18.356 3.55092C19.24 3.03092 19.916 2.19893 20.228 1.18492C19.396 1.67892 18.486 2.01692 17.524 2.22492C16.744 1.39292 15.626 0.872925 14.404 0.872925C12.038 0.872925 10.14 2.79693 10.14 5.13693C10.14 5.47493 10.166 5.78692 10.244 6.09892C6.708 5.94292 3.588 4.22692 1.482 1.65292C-0.0259998 4.35692 1.664 6.59293 2.782 7.34692C2.106 7.34692 1.43 7.13893 0.858 6.82692C0.858 8.93293 2.34 10.6749 4.264 11.0649C3.848 11.1949 2.912 11.2729 2.34 11.1429C2.886 12.8329 4.472 14.0809 6.318 14.1069C4.862 15.2509 2.73 16.1609 0 15.8749C1.898 17.0969 4.134 17.7989 6.552 17.7989C14.404 17.7989 18.668 11.2989 18.668 5.68292C18.668 5.50092 18.668 5.31892 18.642 5.13693C19.526 4.48693 20.254 3.73292 20.8 2.87492Z" fill="#4B7159"/>
</svg>
