<svg width="11" height="19" viewBox="0 0 11 19" fill="none" xmlns="http://www.w3.org/2000/svg">
<path d="M3.44078 10.7944C3.37478 10.7944 1.92278 10.7944 1.26278 10.7944C0.910781 10.7944 0.800781 10.6624 0.800781 10.3324C0.800781 9.45244 0.800781 8.55044 0.800781 7.67044C0.800781 7.31844 0.932781 7.20844 1.26278 7.20844H3.44078C3.44078 7.14244 3.44078 5.86644 3.44078 5.27244C3.44078 4.39244 3.59478 3.55644 4.03478 2.78644C4.49678 1.99444 5.15678 1.46644 5.99278 1.15844C6.54277 0.960436 7.09277 0.872437 7.68677 0.872437H9.84277C10.1508 0.872437 10.2828 1.00444 10.2828 1.31244V3.82044C10.2828 4.12844 10.1508 4.26044 9.84277 4.26044C9.24877 4.26044 8.65477 4.26044 8.06077 4.28244C7.46677 4.28244 7.15877 4.56844 7.15877 5.18444C7.13677 5.84444 7.15877 6.48244 7.15877 7.16444H9.71077C10.0628 7.16444 10.1948 7.29644 10.1948 7.64844V10.3104C10.1948 10.6624 10.0848 10.7724 9.71077 10.7724C8.91877 10.7724 7.22477 10.7724 7.15877 10.7724V17.9444C7.15877 18.3184 7.04877 18.4504 6.65277 18.4504C5.72878 18.4504 4.82678 18.4504 3.90278 18.4504C3.57278 18.4504 3.44078 18.3184 3.44078 17.9884C3.44078 15.6784 3.44078 10.8604 3.44078 10.7944Z" fill="#4B7159"/>
</svg>
