<svg width="19" height="19" viewBox="0 0 19 19" fill="none" xmlns="http://www.w3.org/2000/svg">
<path d="M13.7809 0.873413H4.78114C2.30642 0.873413 0.28125 2.89858 0.28125 5.3733V14.3735C0.28125 16.8476 2.30642 18.8734 4.78114 18.8734H13.7809C16.2556 18.8734 18.2808 16.8476 18.2808 14.3735V5.3733C18.2808 2.89858 16.2556 0.873413 13.7809 0.873413ZM16.7808 14.3735C16.7808 16.0272 15.4356 17.3734 13.7809 17.3734H4.78114C3.12721 17.3734 1.78129 16.0272 1.78129 14.3735V5.3733C1.78129 3.71915 3.12721 2.37345 4.78114 2.37345H13.7809C15.4356 2.37345 16.7808 3.71915 16.7808 5.3733V14.3735Z" fill="#4B7159"/>
<path fill-rule="evenodd" clip-rule="evenodd" d="M1.281 10.3734C0.881001 5.17341 2.44767 2.87341 3.281 2.37341L7.78101 1.87341L14.781 2.37341L16.281 3.37341L17.281 5.37341V9.87341V13.3734L16.781 16.3734L15.781 17.3734L13.281 18.3734H10.781L5.78101 17.8734C4.94767 17.8734 3.181 17.7734 2.78101 17.3734C2.74529 17.3377 2.70958 17.3045 2.67386 17.2714C2.20958 16.8402 1.74529 16.4091 1.281 10.3734ZM9.28102 5.37341C6.79527 5.37341 4.78113 7.38777 4.78113 9.8733C4.78113 12.3579 6.79527 14.3736 9.28102 14.3736C11.7661 14.3736 13.7809 12.3579 13.7809 9.8733C13.7809 7.38777 11.7661 5.37341 9.28102 5.37341ZM9.28102 12.8736C7.62436 12.8736 6.28116 11.5304 6.28116 9.8733C6.28116 8.21621 7.62436 6.87345 9.28102 6.87345C10.9377 6.87345 12.2809 8.21621 12.2809 9.8733C12.2809 11.5304 10.9377 12.8736 9.28102 12.8736ZM15.2816 4.9979C15.2816 5.6192 14.7779 6.12287 14.1566 6.12287C13.5353 6.12287 13.0316 5.6192 13.0316 4.9979C13.0316 4.37659 13.5353 3.87292 14.1566 3.87292C14.7779 3.87292 15.2816 4.37659 15.2816 4.9979Z" fill="#4B7159"/>
</svg>
